HIERARCHY
ROOT Hips
{
	OFFSET 0.000000 0.000000 0.000000 
	CHANNELS 6 Xposition Yposition Zposition Zrotation Yrotation Xrotation
	JOINT LeftUpLeg
	{
		OFFSET 1.363060 -1.794630 0.839290 
		CHANNELS 3 Zrotation Yrotation Xrotation
		JOINT LeftLeg
		{
			OFFSET 2.448110 -6.726130 0.000000 
			CHANNELS 3 Zrotation Yrotation Xrotation
			JOINT LeftFoot
			{
				OFFSET 2.562200 -7.039590 0.000000 
				CHANNELS 3 Zrotation Yrotation Xrotation
				JOINT LeftToeBase
				{
					OFFSET 0.157640 -0.433110 2.322550 
					CHANNELS 3 Zrotation Yrotation Xrotation
					End Site
					{
						OFFSET 0.000000 0.000000 0.000000 
					}
				}
			}
		}
	}
	JOINT RightUpLeg
	{
		OFFSET -1.305520 -1.794630 0.839290 
		CHANNELS 3 Zrotation Yrotation Xrotation
		JOINT RightLeg
		{
			OFFSET -2.542530 -6.985550 0.000000 
			CHANNELS 3 Zrotation Yrotation Xrotation
			JOINT RightFoot
			{
				OFFSET -2.568260 -7.056230 0.000000 
				CHANNELS 3 Zrotation Yrotation Xrotation
				JOINT RightToeBase
				{
					OFFSET -0.164730 -0.452590 2.363150 
					CHANNELS 3 Zrotation Yrotation Xrotation
					End Site
					{
						OFFSET 0.000000 0.000000 0.000000 
					}
				}
			}
		}
	}
	JOINT Spine
	{
		OFFSET 0.028270 2.035590 -0.193380 
		CHANNELS 3 Zrotation Yrotation Xrotation
		JOINT Spine1
		{
			OFFSET 0.056720 2.048850 -0.042750 
			CHANNELS 3 Zrotation Yrotation Xrotation
			JOINT Neck1
			{
				OFFSET -0.054170 1.746240 0.172020 
				CHANNELS 3 Zrotation Yrotation Xrotation
				JOINT Head
				{
					OFFSET 0.104070 1.761360 -0.123970 
					CHANNELS 3 Zrotation Yrotation Xrotation
					End Site
					{
						OFFSET 0.000000 0.000000 0.000000 
					}
				}
			}
			JOINT LeftArm
			{
				OFFSET 3.362410 1.200890 -0.311210 
				CHANNELS 3 Zrotation Yrotation Xrotation
				JOINT LeftForeArm
				{
					OFFSET 4.983000 -0.000000 -0.000000 
					CHANNELS 3 Zrotation Yrotation Xrotation
					JOINT LeftHand
					{
						OFFSET 3.483560 -0.000000 -0.000000 
						CHANNELS 3 Zrotation Yrotation Xrotation
						JOINT LeftHandIndex1
						{
							OFFSET 0.715260 -0.000000 -0.000000 
							CHANNELS 3 Zrotation Yrotation Xrotation
							End Site
							{
								OFFSET 0.000000 0.000000 0.000000 
							}
						}
					}
				}
			}
			JOINT RightArm
			{
				OFFSET -3.136600 1.374050 -0.404650 
				CHANNELS 3 Zrotation Yrotation Xrotation
				JOINT RightForeArm
				{
					OFFSET -5.241900 -0.000000 -0.000000 
					CHANNELS 3 Zrotation Yrotation Xrotation
					JOINT RightHand
					{
						OFFSET -3.444170 -0.000000 -0.000000 
						CHANNELS 3 Zrotation Yrotation Xrotation
						JOINT RightHandIndex1
						{
							OFFSET -0.622530 -0.000000 -0.000000 
							CHANNELS 3 Zrotation Yrotation Xrotation
							End Site
							{
								OFFSET 0.000000 0.000000 0.000000 
							}
						}
					}
				}
			}
		}
	}
}
MOTION
Frames: 18
Frame Time: 0.041667
11.998904 16.025747 8.112671 -140.672716 -60.002033 147.382873 -6.043307 4.055686 -42.383604 17.057072 20.066830 81.655114 0.929680 -7.383056 -8.265172 0.075100 1.767800 4.864500 23.808670 -1.941709 -27.530332 -6.550504 -15.013276 46.989166 -0.152425 -2.461184 -10.875139 -1.123100 6.731700 -18.923000 1.894892 0.771774 0.001566 4.963639 0.080650 -2.986484 13.386741 -21.897308 7.575590 6.169900 -11.042300 7.283200 -73.824514 -0.828452 42.247109 37.562782 -49.280338 -18.472095 0.793155 -0.421419 3.907187 -7.125000 0.000000 0.000000 38.903663 28.078927 -58.737782 -13.296308 22.724424 -2.325809 0.262744 0.024791 -34.941865 7.125000 0.000000 0.000000 
11.973284 16.016413 8.211872 -143.666645 -59.872896 149.655844 -6.567665 3.072871 -41.706019 17.083639 20.107363 81.750637 1.010432 -7.194688 -9.521911 0.168200 2.641900 7.283400 21.961865 -2.231595 -27.229276 -6.511536 -14.953419 46.795576 -0.213418 -1.385661 -9.832601 -1.458300 7.632500 -21.603300 1.806083 0.513100 0.133670 5.488605 -0.085449 -2.497543 12.962875 -21.487848 8.031172 6.010600 -10.823400 7.429900 -74.511085 -2.536645 44.182941 38.655166 -49.885758 -19.252555 0.783309 -0.391806 3.369926 -7.125000 0.000000 0.000000 39.412614 29.673114 -57.368767 -13.621581 23.222634 -2.455242 0.239085 0.012170 -35.836156 7.125000 0.000000 0.000000 
11.972589 15.938561 8.392997 -144.412262 -57.915098 150.478273 -5.227129 2.435871 -42.222904 17.164998 20.122506 81.943932 1.008204 -6.566363 -10.115501 0.228900 3.079300 8.499500 22.122801 -1.274125 -27.788619 -6.475916 -14.907996 46.618054 -0.229195 -0.593440 -8.448167 -1.795200 8.425800 -24.015000 1.798611 0.781909 0.126183 4.727621 0.052607 -2.593593 12.696786 -21.134985 8.333465 5.950100 -10.645400 7.576300 -75.225343 -4.218099 46.250855 39.541350 -50.314888 -19.891408 0.787537 -0.382770 2.815676 -7.125000 0.000000 0.000000 39.861279 30.772547 -54.950584 -13.931907 23.614427 -2.587277 0.199707 0.001429 -37.562375 7.125000 0.000000 0.000000 
11.960872 15.911154 8.528046 -145.296495 -56.242117 151.264986 -3.989029 2.045683 -42.264913 17.122357 20.124302 81.786056 0.964967 -5.596017 -10.565000 0.157600 2.557800 7.049800 22.274176 -0.336131 -27.701546 -6.363892 -14.788268 46.133172 -0.231744 -0.144119 -7.462420 -1.788400 8.410700 -23.968700 1.788668 1.028369 0.089459 4.471341 0.171732 -2.791377 12.436140 -20.729418 8.605690 5.871500 -10.450900 7.588200 -75.845150 -5.719723 48.358040 40.186968 -50.619896 -20.363348 0.790211 -0.384921 2.485395 -7.125000 0.000000 0.000000 40.307630 31.943034 -53.684555 -13.949675 23.621684 -2.595623 0.188936 0.007099 -37.885895 7.125000 0.000000 0.000000 
11.913307 15.938065 8.627545 -148.243907 -55.961462 152.906366 -4.723020 1.129199 -40.617533 16.838813 20.123907 81.007296 0.968690 -4.901153 -11.324927 0.140000 2.411200 6.643600 20.508614 -0.883866 -26.462405 -6.194516 -14.600758 45.404383 -0.262645 0.602772 -6.616384 -1.735300 8.291500 -23.602900 1.602572 0.897368 0.197331 4.688010 0.082732 -2.673270 12.138482 -20.348769 8.918161 5.713100 -10.253200 7.566900 -76.241789 -7.386306 50.789797 41.023973 -51.028864 -20.956265 0.782570 -0.359157 2.149210 -7.125000 0.000000 0.000000 40.765632 33.437606 -53.885258 -13.803402 23.474261 -2.542530 0.206851 0.018574 -36.801658 7.125000 0.000000 0.000000 
11.914201 15.922177 8.733002 -147.339695 -53.804808 151.944675 -2.102464 0.750961 -40.202016 16.660612 20.073769 80.380847 1.026168 -5.562946 -11.189608 0.170500 2.660300 7.334500 22.128149 0.600703 -25.594913 -5.967136 -14.376257 44.442400 -0.203312 0.166012 -5.784605 -1.665900 8.132400 -23.117000 1.685967 1.313780 0.260138 4.206545 0.251971 -2.614434 11.813245 -20.076347 9.394087 5.518900 -10.094800 7.733600 -76.677247 -9.449121 53.390962 41.741980 -51.344421 -21.464897 0.779710 -0.336932 1.789299 -7.125000 0.000000 0.000000 41.131583 34.817536 -53.733348 -13.830548 23.562779 -2.564234 0.225059 0.011222 -36.542396 7.125000 0.000000 0.000000 
11.901987 15.898245 8.868747 -147.717675 -51.853126 152.321472 -0.498823 0.053582 -39.847834 16.365389 20.020585 79.457349 1.045638 -6.034741 -10.822592 0.216700 2.997000 8.270500 22.699114 2.210418 -25.099226 -5.742430 -14.139632 43.470042 -0.168233 0.007295 -4.861431 -1.613600 8.009900 -22.744300 1.705363 1.563750 0.286722 3.882763 0.356864 -2.558807 11.282160 -19.610821 9.939577 5.304200 -9.860000 7.902900 -77.515954 -11.320886 55.644682 42.399389 -51.629482 -21.948029 0.782905 -0.328466 1.586686 -7.125000 0.000000 0.000000 41.191139 36.511342 -53.447177 -13.739151 23.472047 -2.541847 0.231401 0.010455 -36.437321 7.125000 0.000000 0.000000 
11.887290 15.858326 9.024251 -149.388880 -49.799606 153.948465 0.160110 -0.406307 -39.606770 16.031923 19.967856 78.443131 1.106318 -6.541593 -10.919922 0.127800 2.304500 6.347900 22.406477 3.936275 -25.022485 -5.531014 -13.898935 42.525446 -0.153897 0.075869 -3.839459 -1.817700 8.475600 -24.168400 1.691138 1.744964 0.242737 4.072356 0.430292 -2.738087 10.714347 -18.845519 10.388536 5.174000 -9.510700 7.991100 -78.658486 -12.845338 57.332278 43.079886 -51.915251 -22.443730 0.780544 -0.314374 1.599705 -7.125000 0.000000 0.000000 41.129204 38.745854 -53.081413 -13.449578 23.077999 -2.434701 0.231994 0.028050 -35.800291 7.125000 0.000000 0.000000 
11.849159 15.846907 9.158705 -149.825045 -49.456289 154.178456 0.686585 -2.589491 -38.651365 15.574550 19.898614 77.066798 1.258619 -7.993275 -11.165009 0.023800 0.995600 2.736800 21.987847 4.017233 -24.484355 -5.313871 -13.633208 41.531695 -0.137026 -0.022762 -3.316622 -1.930100 8.718800 -24.919700 1.761222 1.104148 0.183880 4.491025 0.097893 -2.915680 10.360826 -18.088493 10.794866 5.165300 -9.177700 8.090000 -79.688950 -14.383807 59.121674 43.484453 -52.069284 -22.721859 0.778330 -0.304804 1.519062 -7.125000 0.000000 0.000000 41.302274 40.776218 -52.076253 -13.271355 22.852107 -2.365589 0.240609 0.042310 -35.461418 7.125000 0.000000 0.000000 
11.810431 15.853361 9.289682 -150.118601 -48.741018 154.104128 1.434242 -4.499262 -37.383939 15.126884 19.802044 75.682228 1.407190 -10.239123 -10.873545 0.011300 0.687300 1.888800 21.859489 4.540733 -23.473186 -5.086364 -13.355526 40.480153 -0.116241 -0.196348 -2.722331 -1.783900 8.400700 -23.938000 1.789180 0.878892 0.185609 4.514129 -0.035604 -3.052674 9.982984 -17.552532 11.046004 5.056000 -8.927900 8.138600 -80.609838 -16.344741 61.689469 43.606936 -52.079790 -22.781143 0.781385 -0.302422 1.598878 -7.125000 0.000000 0.000000 41.199487 42.563198 -52.485451 -13.058736 22.569339 -2.300553 0.246459 0.035785 -34.415789 7.125000 0.000000 0.000000 
11.772002 15.845516 9.454621 -150.663804 -47.372508 154.842955 2.232954 -6.078647 -37.072429 14.808687 19.724999 74.683813 1.450759 -12.312758 -10.020462 0.020800 0.930800 2.558500 21.770003 5.734423 -23.236173 -4.837309 -13.043224 39.301928 -0.096549 -0.373576 -1.715658 -1.882200 8.616300 -24.602400 1.767385 0.908668 0.167997 4.136170 -0.014649 -3.018343 9.568246 -17.033485 11.295620 4.906700 -8.675000 8.216600 -81.762083 -18.552643 64.327689 43.420131 -51.962779 -22.664437 0.786317 -0.318077 1.823833 -7.125000 0.000000 0.000000 41.106890 44.444364 -53.316995 -12.886146 22.326770 -2.272178 0.231832 0.007651 -33.168841 7.125000 0.000000 0.000000 
11.731785 15.818010 9.621446 -151.345363 -46.016724 155.646181 2.699521 -7.256469 -36.692778 14.633633 19.686212 74.125891 1.486814 -13.503463 -9.810672 0.030000 -1.117900 -3.073200 21.545453 6.916473 -22.964744 -4.583628 -12.709470 38.067625 -0.084228 -0.534714 -0.740502 -2.121800 9.115200 -26.156400 1.772155 0.776794 0.155568 4.034011 -0.088707 -2.984527 9.267797 -16.407580 11.621570 4.843200 -8.378700 8.365400 -83.055552 -20.668995 66.394198 43.067001 -51.789319 -22.465221 0.793000 -0.359206 1.846319 -7.125000 0.000000 0.000000 41.450954 46.245480 -52.160990 -12.935646 22.449686 -2.294555 0.245147 0.006743 -33.610156 7.125000 0.000000 0.000000 
11.688192 15.800235 9.789066 -151.845730 -44.914358 156.139316 3.017147 -8.342790 -36.368779 14.557208 19.666601 73.886467 1.454245 -14.713195 -9.088661 0.152000 -2.512300 -6.923700 21.281208 7.955007 -22.452400 -4.339957 -12.374715 36.850504 -0.074961 -0.709353 -0.026020 -2.037000 8.942700 -25.616400 1.718057 0.561171 0.124250 3.624008 -0.186120 -3.104948 9.035313 -15.865606 11.944980 4.744600 -8.108100 8.481000 -84.008915 -22.840693 68.782629 42.742993 -51.582918 -22.198839 0.818688 -0.426551 1.338198 -7.125000 0.000000 0.000000 42.088175 47.786225 -51.071420 -13.006012 22.557201 -2.331306 0.240402 -0.002481 -34.150183 7.125000 0.000000 0.000000 
11.660785 15.808477 9.927888 -153.542923 -43.038924 157.704093 2.775298 -8.096036 -35.986576 14.490182 19.632734 73.684443 1.378906 -16.227118 -8.019167 0.130400 -2.328000 -6.413100 20.627333 10.118332 -21.987322 -4.109956 -12.057066 35.686129 -0.058775 -1.081380 0.794231 -1.910200 8.676400 -24.788300 1.559220 0.879321 0.102131 3.527256 -0.021508 -3.142132 8.955511 -15.402743 12.263264 4.656500 -7.856500 8.600400 -84.938520 -25.139631 71.464736 42.357785 -51.307033 -21.773675 0.791790 -0.311752 0.599391 -7.125000 0.000000 0.000000 42.845971 49.397990 -50.850028 -12.947927 22.583165 -2.294413 0.309059 0.006300 -33.709273 7.125000 0.000000 0.000000 
11.595445 15.799937 10.119141 -155.434628 -42.519524 159.411354 1.313462 -9.380169 -35.943848 14.430824 19.646323 73.626743 1.280678 -16.196683 -7.135380 0.115800 -2.194300 -6.042800 18.763223 10.683364 -22.158094 -3.888863 -11.703992 34.478195 -0.073087 -1.089603 1.818830 -1.833500 8.510300 -24.275100 1.409607 0.478308 0.011828 3.449777 -0.178161 -3.330646 8.759848 -14.848596 12.381727 4.599600 -7.584700 8.659000 -86.562977 -27.378926 73.888577 41.642194 -50.881709 -21.175175 0.781535 -0.283486 0.023879 -7.125000 0.000000 0.000000 44.271338 49.674782 -44.598039 -13.829795 23.693429 -2.619637 0.208811 0.003623 -38.965756 7.125000 0.000000 0.000000 
11.540135 15.800930 10.290534 -157.329177 -41.615904 160.889810 -0.245760 -9.677559 -35.801803 14.339645 19.632589 73.446703 1.255725 -15.385493 -7.013596 0.178600 -2.721900 -7.505500 17.164992 11.599413 -21.845254 -3.634168 -11.296316 33.069100 -0.082369 -1.246008 2.723554 -1.667300 8.135700 -23.127100 1.029103 -0.062773 -0.096836 2.304368 -0.356874 -3.713542 8.969772 -14.185439 12.632435 4.660800 -7.221200 8.771800 -86.688875 -29.397924 75.789075 41.251726 -50.629465 -20.888150 0.791964 -0.298842 -0.885810 -7.125000 0.000000 0.000000 46.444635 51.138065 -42.551170 -13.970302 23.831933 -2.682928 0.189975 -0.004597 -39.768278 7.125000 0.000000 0.000000 
11.494158 15.802817 10.445046 -158.797954 -40.262756 162.194606 -1.373982 -8.987836 -36.094199 14.247795 19.621229 73.227444 1.252460 -14.524701 -7.141556 0.241700 -3.163700 -8.735000 16.249775 12.676691 -21.508932 -3.348873 -10.804920 31.413656 -0.096128 -1.534431 3.884927 -1.718300 8.253000 -23.485100 1.031066 -0.138387 -0.014853 3.046751 -0.440548 -3.196000 8.836250 -13.479572 12.697779 4.670100 -6.876000 8.800900 -88.311791 -31.588646 77.383485 40.952057 -50.491131 -20.663408 0.790061 -0.298025 -1.264890 -7.125000 0.000000 0.000000 46.330135 53.745794 -44.010664 -13.476933 23.333438 -2.511104 0.262380 -0.002788 -37.623244 7.125000 0.000000 0.000000 
11.469234 15.810364 10.577613 -160.105901 -38.178812 163.149122 -2.226270 -7.122905 -36.172862 14.123230 19.582999 72.886324 1.241394 -13.844243 -7.105072 0.185000 -2.770200 -7.639600 16.024362 14.237630 -20.682609 -3.035767 -10.233070 29.507737 -0.115136 -2.029487 5.233051 -2.009400 8.885600 -25.438100 1.088425 0.359612 0.102219 4.172028 -0.286801 -2.730228 8.427980 -12.963445 12.774201 4.469100 -6.620300 8.779600 -90.489658 -33.651105 79.140065 40.276007 -50.146675 -20.129954 0.786344 -0.297155 -0.880519 -7.125000 0.000000 0.000000 46.510760 55.142019 -42.610105 -13.439494 23.375145 -2.503698 0.277733 -0.011049 -38.166006 7.125000 0.000000 0.000000 
